<svg aria-hidden="true" style="position:absolute;width:0;height:0;overflow:hidden" xmlns="http://www.w3.org/2000/svg"><defs><symbol id="icon-Vector" viewBox="0 0 42 32"><path fill="#fff" style="fill:var(--color1, #fff);stroke:var(--color1, #fff)" stroke="#fff" stroke-width=".64" d="m6.263 15.205-.22-.21-3.307 3.132 11.651 11.114L38.864 5.89l-3.285-3.134-21.192 20.197-8.124-7.75z"/></symbol><symbol id="icon-Group" viewBox="0 0 28 32"><path d="M24.667 12c-.492 0-.954.134-1.35.368A2.67 2.67 0 0 0 20.667 10c-.651 0-1.249.236-1.714.628a2.667 2.667 0 0 0-3.619-.937V2.666c0-1.471-1.196-2.667-2.667-2.667S10 1.195 10 2.666v17.843c0 .336-.221.508-.316.567s-.351.179-.648.029l-4.281-2.141A2.827 2.827 0 0 0 .668 21.49v.509a.67.67 0 0 0 .212.488l7.695 7.182A8.64 8.64 0 0 0 14.488 32h4.18c4.779 0 8.667-3.888 8.667-8.667v-8.667a2.67 2.67 0 0 0-2.667-2.667zM26 23.333c0 4.044-3.29 7.333-7.333 7.333h-4.18c-1.863 0-3.641-.7-5.003-1.973l-7.483-6.984v-.219a1.493 1.493 0 0 1 2.158-1.333l4.281 2.141a1.988 1.988 0 0 0 1.946-.087 1.988 1.988 0 0 0 .949-1.702V2.666c0-.735.598-1.333 1.333-1.333s1.333.598 1.333 1.333v10a.667.667 0 1 0 1.334 0v-.667c0-.735.598-1.333 1.333-1.333s1.333.598 1.333 1.333v.672a.667.667 0 0 0 1.334-.005v-.01a1.336 1.336 0 0 1 1.333-1.323c.735 0 1.333.598 1.333 1.333v2a.667.667 0 1 0 1.334 0c0-.735.598-1.333 1.333-1.333s1.333.598 1.333 1.333v8.667z"/></symbol><symbol id="icon-close-black-18dp-2-1" viewBox="0 0 32 32"><path d="m26.667 7.303-1.97-1.97-7.808 7.808-7.808-7.808-1.97 1.97 7.808 7.808-7.808 7.808 1.97 1.97 7.808-7.808 7.808 7.808 1.97-1.97-7.808-7.808 7.808-7.808z"/></symbol><symbol id="icon-icon-check" viewBox="0 0 32 32"><path fill="#2196f3" style="fill:var(--color2, #2196f3)" d="M4 1h24a4 4 0 0 1 4 4v22a4 4 0 0 1-4 4H4a4 4 0 0 1-4-4V5a4 4 0 0 1 4-4z"/><path fill="#fff" style="fill:var(--color1, #fff);stroke:var(--color1, #fff)" stroke="#fff" stroke-width=".4" d="m7.914 16.503-.138-.131-2.067 1.958 7.282 6.947 15.298-14.594-2.053-1.959-13.245 12.623-5.077-4.844z"/></symbol><symbol id="icon-email-black-18dp-1" viewBox="0 0 32 32"><path d="M26.667 5.333H5.334A2.663 2.663 0 0 0 2.681 8l-.013 16c0 1.467 1.2 2.667 2.667 2.667h21.333c1.467 0 2.667-1.2 2.667-2.667V8c0-1.467-1.2-2.667-2.667-2.667zM26.133 11l-9.427 5.893a1.346 1.346 0 0 1-1.413 0L5.866 11a1.132 1.132 0 1 1 1.2-1.92l8.933 5.587 8.933-5.587a1.132 1.132 0 1 1 1.2 1.92z"/></symbol><symbol id="icon-phone-black-18dp-1" viewBox="0 0 32 32"><path d="m24.882 19.773-3.268-.373a2.561 2.561 0 0 0-2.11.733L17.137 22.5a19.357 19.357 0 0 1-8.478-8.478l2.38-2.38a2.561 2.561 0 0 0 .733-2.11l-.373-3.242a2.575 2.575 0 0 0-2.56-2.277H6.613c-1.454 0-2.663 1.209-2.573 2.663.682 10.987 9.469 19.761 20.443 20.443 1.454.09 2.663-1.119 2.663-2.573V22.32a2.549 2.549 0 0 0-2.264-2.547z"/></symbol><symbol id="icon---18dp-1" viewBox="0 0 32 32"><path d="M16 16c2.947 0 5.333-2.387 5.333-5.333S18.946 5.334 16 5.334c-2.947 0-5.333 2.387-5.333 5.333S13.054 16 16 16zm0 2.667c-3.56 0-10.667 1.787-10.667 5.333v1.333c0 .733.6 1.333 1.333 1.333h18.667c.733 0 1.333-.6 1.333-1.333V24c0-3.547-7.107-5.333-10.667-5.333z"/></symbol><symbol id="icon-icon-send" viewBox="0 0 32 32"><path fill="#fff" style="fill:var(--color1, #fff)" d="M32 0 0 18l10.227 3.788L26 7 14.002 23.186l.01.004-.012-.004V32l5.735-6.691L27 28l5-28z"/></symbol></defs></svg>